# xmcd
#
# Track frame offsets:
#	150
#	12190
#	31038
#	42069
#	60226
#	75594
#	88044
#	107757
#	125242
#	142552
#	162497
#	176659
#	190444
#	211657
#	229177
#	242881
#	264966
#	277903
#	291797
#
# Disc length: 4239 seconds
#
# Revision: 1
# Processed by: cddbd v1.5.1PL2 Copyright (c) Steve Scherf et al.
# Submitted via: audiograbber 1.81.03
#
DISCID=f7108d13
DTITLE=Валерий Ободзинский - Листопад
DYEAR=2005
DGENRE=Country
TTITLE0=Уходят любимые
TTITLE1=Спасибо тебе за любовь
TTITLE2=Одно и то же
TTITLE3=Невозможно
TTITLE4=Подожди
TTITLE5=Мне снится море
TTITLE6=Мелодия
TTITLE7=Белые крылья
TTITLE8=Я верну тебя
TTITLE9=Только "да"
TTITLE10=Колдовство
TTITLE11=Прощание с любимой
TTITLE12=Небо моё
TTITLE13=Отведу твою беду
TTITLE14=Старый спор
TTITLE15=Первый прыжок
TTITLE16=Не грусти
TTITLE17=Листопад
TTITLE18=Песня из к/ф "Раба любви"
EXTD=
EXTT0=
EXTT1=
EXTT2=
EXTT3=
EXTT4=
EXTT5=
EXTT6=
EXTT7=
EXTT8=
EXTT9=
EXTT10=
EXTT11=
EXTT12=
EXTT13=
EXTT14=
EXTT15=
EXTT16=
EXTT17=
EXTT18=
PLAYORDER=
